<svg width="1032mm" height="759mm" viewBox="0 0 1032 759" xml:space="preserve" xmlns:xlink="http://www.w3.org/1999/xlink" xmlns="http://www.w3.org/2000/svg"><g style="display:inline"><path d="M515.938 0C390.725 0 259.78 40.136 173.832 114.343 34.03 235.047 0 367.853 0 468.395s29.787 131.208 118.326 202.303 272.399 87.499 397.612 87.499c125.212 0 295.407-15.973 392.981-74.05 40.914-24.35 124.61-101.153 124.61-201.696s-43.953-249.058-177.14-357.36C768.288 53.453 641.15 0 515.937 0" style="fill:#64B5F6"/><ellipse style="fill:#E3F2FD" cx="215.186" cy="234.558" rx="35.452" ry="71.516" transform="matrix(.90792 .41914 -.3872 .922 0 0)"/><ellipse style="fill:#E3F2FD" cx="240.291" cy="248.236" rx="205.79" ry="67.259" transform="matrix(.91967 -.3927 .446 .89503 0 0)"/><path style="fill:#42A5F5" d="M876.432 289.94c3.14 8.377 16.368 150.252-86.54 217.73-7.103 21.49 74.714 90.205 50.711 141.11-58.143 93.552-515.092 137.397-691.775 0-73.327-50.255-60.296-158.033 72.206-172.154 17.584-1.004 226.826 41.847 227.104 16.16-1.465-15.615-206.018-41.605-207.257-141.662 1.558-67.06 132.902-198.644 318.602-210.564 185.275-1.832 307.305 100.239 316.95 149.38"/><ellipse style="fill:#64B5F6" cx="711.16" cy="270.614" rx="36.38" ry="20.816"/><path d="M497.45 423.752c-1.196-1.298-1.9-6.104 2.525-5.398 4.918 1.023 39.459 23.727 46.246 32.028 2.452 3.956-1.506 5.37-3.537 4.028-4.404-3.177-42.526-28.36-45.234-30.658m38.41 41.66c1.152 2.642-1.3 6.855-9.556 5.053-154.787-80.342-230.178-75.805-317.267-101.403-13.638-10.519-4.925-10.173 2.71-10.6 119.287 15.376 229.83 43.767 324.114 106.95" id="a"/><use xlink:href="#a" transform="scale(-1 1)rotate(-4.478 -110.065 15170.922)"/></g></svg>